<?xml version="1.0" encoding="utf-8"?>
<!-- Generator: Adobe Illustrator 27.5.0, SVG Export Plug-In . SVG Version: 6.00 Build 0)  -->
<svg version="1.1" xmlns="http://www.w3.org/2000/svg" xmlns:xlink="http://www.w3.org/1999/xlink" x="0px" y="0px"
	 viewBox="0 0 750 500" style="enable-background:new 0 0 750 500;" xml:space="preserve">
<g id="BACKGROUND">
	
		<linearGradient id="XMLID_00000019669268262909313220000016287874381674355362_" gradientUnits="userSpaceOnUse" x1="375" y1="0.516" x2="375" y2="462.796">
		<stop  offset="0" style="stop-color:#4AC9FF"/>
		<stop  offset="0.0011" style="stop-color:#4AC9FF"/>
		<stop  offset="0.1115" style="stop-color:#6AD6ED"/>
		<stop  offset="0.2306" style="stop-color:#84E1DE"/>
		<stop  offset="0.3625" style="stop-color:#98EAD3"/>
		<stop  offset="0.5121" style="stop-color:#A6EFCB"/>
		<stop  offset="0.694" style="stop-color:#AEF3C6"/>
		<stop  offset="1" style="stop-color:#B1F4C5"/>
	</linearGradient>
	<rect id="XMLID_230_" style="fill:url(#XMLID_00000019669268262909313220000016287874381674355362_);" width="750" height="500"/>
</g>
<g id="OBJECTS">
	<g id="XMLID_197_">
		
			<linearGradient id="XMLID_00000168797726315525967250000014551280587503926680_" gradientUnits="userSpaceOnUse" x1="274" y1="214.6022" x2="274" y2="367.2288">
			<stop  offset="0" style="stop-color:#FFCC4A"/>
			<stop  offset="0.6034" style="stop-color:#F8E278"/>
			<stop  offset="1" style="stop-color:#F4EF92"/>
		</linearGradient>
		
			<circle id="XMLID_202_" style="fill:url(#XMLID_00000168797726315525967250000014551280587503926680_);" cx="274" cy="292" r="82"/>
		<g id="XMLID_198_">
			<path id="XMLID_201_" style="fill:#00A653;" d="M477,339c0,0-74,69-169,72c-4.42,0.14-9.06,0.14-13.91,0.02
				C202.87,408.71,41.24,361.59,0,336.2v-66.27c24.67-27.35,83.5-84.75,140-80.93c0.15,0.01,0.3,0.02,0.45,0.04
				c21.85,1.82,43.45,29.24,64.7,58.43C229.57,281,253.55,316.87,277,319c0.79,0.07,1.59,0.13,2.4,0.16
				c28.34,1.47,55.35-14.04,76.59-26.28c11.65-6.72,21.57-12.46,29.01-13.88c0.01,0,0,0,0.03,0.02c0.01,0.01,0.03,0.03,0.06,0.04
				L477,339z"/>
			<path id="XMLID_200_" style="opacity:0.17;fill:#1D3003;" d="M477,339c0,0-74,69-169,72c-4.42,0.14-9.06,0.14-13.91,0.02
				C248.38,396.21,217.45,375.08,246,367c53-15,87,6,106-12s47-10,53-33c5.88-22.54-18.98-42.2-19.97-42.98L477,339z"/>
			<path id="XMLID_199_" style="opacity:0.17;fill:#1D3003;" d="M279.4,319.16c-9.13,29.95-41.73,34.22-99.4,35.84
				c-71,2-94-33-76-44s44-14,57-55c9.89-31.19-10.31-56.59-20.55-66.96C187.4,192.96,233.14,315.01,277,319
				C277.79,319.07,278.59,319.13,279.4,319.16z"/>
		</g>
	</g>
	<g id="XMLID_178_">
		<g id="XMLID_194_">
			<path id="XMLID_196_" style="fill:#00A653;" d="M744.173,224.832c0,40.316-15.748,54.418-35.173,54.418
				c-16.445,0-30.249-10.101-34.098-37.655c-0.704-4.997-1.075-10.572-1.075-16.764c0-40.316,15.748-91.582,35.173-91.582
				c1.36,0,2.708,0.252,4.028,0.73C730.555,140.384,744.173,187.343,744.173,224.832z"/>
			<path id="XMLID_195_" style="opacity:0.17;fill:#1D3003;" d="M744.173,224.832c0,40.316-15.748,54.418-35.173,54.418
				c-16.445,0-30.249-10.101-34.098-37.655c23.28,29.711,56.11-2.867,53.343-43.309c-1.898-27.674-8.992-49.939-15.217-64.306
				C730.555,140.384,744.173,187.343,744.173,224.832z"/>
		</g>
		<g id="XMLID_191_">
			<path id="XMLID_193_" style="fill:#00A653;" d="M541.418,255.395c0,17.673-6.903,23.855-15.418,23.855
				c-7.209,0-13.26-4.428-14.947-16.506c-0.308-2.19-0.471-4.634-0.471-7.348c0-17.673,6.903-40.145,15.418-40.145
				c0.596,0,1.187,0.111,1.766,0.32C535.449,218.377,541.418,238.962,541.418,255.395z"/>
			<path id="XMLID_192_" style="opacity:0.17;fill:#1D3003;" d="M541.418,255.395c0,17.673-6.903,23.855-15.418,23.855
				c-7.209,0-13.26-4.428-14.947-16.506c10.205,13.024,24.596-1.257,23.383-18.985c-0.832-12.131-3.942-21.891-6.671-28.189
				C535.449,218.377,541.418,238.962,541.418,255.395z"/>
		</g>
		<g id="XMLID_188_">
			<path id="XMLID_190_" style="fill:#7CB500;" d="M534,316.25c-16,11-36,20-42,21c-3.13,0.52-13.63-2.5-22.95-5.51
				c-8.52-2.75-16.05-5.49-16.05-5.49s-23-22-12-36c10.82-13.77,25.5-6.26,25.99-6.01c-0.32-0.58-11.67-21.13,11.01-30.99
				c0.5-0.22,0.99-0.41,1.47-0.58c22-8.01,32.53,23.58,32.53,23.58s13-20,25-7S550,305.25,534,316.25z"/>
			<path id="XMLID_189_" style="opacity:0.09;fill:#1D3003;" d="M534,316.25c-16,11-36,20-42,21c-3.13,0.52-13.63-2.5-22.95-5.51
				c9.49-6.27,15.87-15.73,13.95-21.49c-4-12,12-13,9-35c-1.54-11.29-7.3-18.37-12.53-22.58c22-8.01,32.53,23.58,32.53,23.58
				s13-20,25-7S550,305.25,534,316.25z"/>
		</g>
		<g id="XMLID_183_">
			<path id="XMLID_187_" style="fill:#7ACC0E;" d="M632,250.25c-1,38-27,45-37,46c-2.47,0.25-5.25,0.56-8.08,0.87
				c-8.61,0.94-17.66,1.88-19.92,1.13c-3-1-22-8-22-8s-24-12-18-29c0.42-1.19,0.87-2.2,1.34-3.05c5.99-10.83,15.76,3.66,16.61,4.95
				l0.04,0.07c-0.33-0.7-6.99-15.47-2.87-27.19c1.7-4.86,5.26-9.19,11.88-11.78c21.93-8.58,37.49,9.19,38.89,18.67
				c-0.11-2.97,0.64-9.62,10.11-5.67c0,0,0-0.01-0.01-0.02c-0.23-0.72-7.74-24,8.01-24.98c1.89-0.12,3.63-0.21,5.25-0.21
				C628.32,212,632.88,216.73,632,250.25z"/>
			<path id="XMLID_186_" style="opacity:0.09;fill:#1D3003;" d="M603,237.25c-9-2-8,19-8,19s-15-23-29-27s-23.88,6.78-23.88,6.78
				c1.7-4.86,5.26-9.19,11.88-11.78c21.93-8.58,37.49,9.19,38.89,18.67C592.78,239.95,593.53,233.3,603,237.25z"/>
			<path id="XMLID_185_" style="opacity:0.09;fill:#1D3003;" d="M632,250.25c-1,38-27,45-37,46c-2.47,0.25-5.25,0.56-8.08,0.87
				c-6.11-7.54-8.04-17.77-0.92-23.87c14-12,27-20,31-39c2.38-11.29,0.87-18.34-0.75-22.21C628.32,212,632.88,216.73,632,250.25z"/>
			<path id="XMLID_184_" style="opacity:0.09;fill:#1D3003;" d="M542,267.25c-4.21-1.41-8.42-8.22-13.66-9.05
				c5.99-10.83,15.76,3.66,16.61,4.95l0.04,0.07l0.01,0.03C545,263.25,548,269.25,542,267.25z"/>
		</g>
		<g id="XMLID_179_">
			<path id="XMLID_182_" style="fill:#5B990A;" d="M694.73,274.96c-4.3,9.12-9.68,17.35-16.04,23.32
				c-26.18,24.6-42.23-3.46-49.28-18c0,0-4.31-6.74-8.41-17.67c-2.7-7.17-5.32-16.15-6.58-26.21c-3.13-25.08,20.05-8.35,20.62-7.94
				c-0.24-0.61-11-26.98-3.16-28.55c7.93-1.59,12.69,3.17,12.69,3.17s-6.46-38.37-1.52-62.08c1.99-9.53,5.81-16.69,12.63-18.05
				c0.3-0.06,0.59-0.1,0.89-0.13c22.83-2.81,19.74,67.57,19.74,67.57s2.38-11.11,7.93-6.35c4.9,4.21,3,21.41,2.49,25.36
				c0.48-2.57,2.87-10.05,14.17-4.73C711.11,209.48,708.14,246.55,694.73,274.96z"/>
			<path id="XMLID_181_" style="opacity:0.14;fill:#D1FF94;" d="M624,237.25c-4,13,18.09,23.86,3.55,25.43
				c-2.21,0.24-4.4,0.21-6.55-0.07c-2.7-7.17-5.32-16.15-6.58-26.21c-3.13-25.08,20.05-8.35,20.62-7.94
				c-0.24-0.61-11-26.98-3.16-28.55c7.93-1.59,12.69,3.17,12.69,3.17s-6.46-38.37-1.52-62.08h0.01c-0.06,1.25,2.94,58.25,5.94,69.25
				c0,0-12-11-14-2c-1.97,8.87,6.75,28.44,6.99,28.99C641.53,236.82,627.93,224.47,624,237.25z"/>
			<path id="XMLID_180_" style="opacity:0.17;fill:#1D3003;" d="M694.727,274.96c-5.03,1.69-10.496,3.491-16.438,5.474
				c-45.221,15.074-43.634-18.247-28.561-24.594c15.074-6.347,38.081-10.314,34.907-24.594c-3.062-13.765-12.011-4.681-12.662-4.006
				c0.532-0.865,9.37-15.28,5.522-22.968c-3.967-7.934-10.313,7.934-10.313,7.934s0.793-22.214,0-53.948
				c-0.69-27.553-8.552-34.178-10.615-35.439c22.833-2.808,19.739,67.57,19.739,67.57s2.38-11.107,7.934-6.347
				c4.903,4.205,2.999,21.413,2.491,25.363c0.484-2.57,2.872-10.052,14.169-4.736C711.11,209.476,708.135,246.55,694.727,274.96z"/>
		</g>
	</g>
	<g id="XMLID_146_">
		<g id="XMLID_152_">
			<path id="XMLID_177_" style="fill:#BFFF69;" d="M422,374c0,0-1.62,2.2-4.48,6.03c-0.44,0.6-0.92,1.24-1.42,1.91
				c-6.62,8.85-18.18,24.16-31.38,41.03c-1.83,2.35-3.7,4.72-5.59,7.12c-0.33,0.42-0.66,0.83-1,1.26v0.01
				c-11.35,14.34-23.47,29.22-34.46,41.81c-6.79,7.78-13.15,14.68-18.64,20.06c-0.27,0.26-0.53,0.52-0.79,0.77H144
				c-0.28-0.04-0.58-0.07-0.89-0.11h-0.04c-3.63-0.46-9.25-1.16-16.29-2.03c-5.92-0.74-12.85-1.59-20.44-2.51
				c-11.6-1.41-24.74-2.97-38.2-4.5c-0.01,0-0.01,0-0.02-0.01c-4.18-0.47-8.4-0.94-12.61-1.41c-6-0.66-12-1.31-17.87-1.92
				c-12.51-1.31-24.49-2.47-34.91-3.33H2.68c-0.91-0.08-1.8-0.15-2.68-0.22V289.82c27.94-0.22,71.57,5.93,125,35.18
				c15.4,8.43,33.61,15.42,53.32,21.19c45.69,13.43,99.43,20.4,144.8,24.01c1.03,0.08,2.06,0.16,3.08,0.25
				c5.14,0.39,10.16,0.74,15.04,1.06c3.68,0.23,7.29,0.45,10.8,0.64c4.4,0.24,8.64,0.46,12.74,0.65c0,0,0,0,0.01,0
				C398.96,374.34,422,374,422,374z"/>
			<path id="XMLID_176_" style="fill:#8FD90F;" d="M422,380c0,0-0.4,0.54-1.15,1.55c-3.64,4.93-15.64,21.04-30.58,40.3
				c-1.81,2.33-3.66,4.71-5.55,7.12c-0.01,0.02-0.02,0.04-0.04,0.05c-11.31,14.46-23.83,30.07-35.5,43.75
				c-6.36,7.47-12.47,14.36-17.99,20.17c-0.33,0.36-0.67,0.71-1,1.06c-0.32,0.34-0.65,0.67-0.96,1c-1.74,1.79-3.4,3.46-4.99,5H144
				c-3.85-0.48-10.52-1.32-19.08-2.38c-6.25-0.77-13.52-1.66-21.43-2.62c-0.89-0.11-1.78-0.21-2.68-0.32
				c-1.86-0.23-3.76-0.45-5.68-0.68c-2.81-0.34-5.67-0.68-8.59-1.02c-3.19-0.38-6.43-0.76-9.71-1.13h-0.04
				c-6.98-0.81-14.11-1.63-21.24-2.41c-6.59-0.73-13.17-1.44-19.59-2.11c-4.94-0.51-9.79-1-14.48-1.46c-0.02,0-0.04,0-0.06-0.01
				c-7.65-0.73-14.88-1.38-21.42-1.9V295.82c27.94-0.22,71.57,5.93,125,35.18c15.4,8.43,33.61,15.42,53.32,21.19
				c40.47,11.9,87.25,18.72,128.94,22.64h0.01c5.38,0.5,10.67,0.96,15.85,1.37c7.79,0.62,15.34,1.15,22.55,1.58h0.01
				c2.15,0.13,4.27,0.26,6.36,0.37c31.52,1.75,55.86,1.9,65.48,1.88C420.44,380.02,422,380,422,380z"/>
			<path id="XMLID_175_" style="fill:#BFFF69;" d="M153,392c0,0-70.24,0.49-119.84-3.69c-13.03-1.09-24.63-2.52-33.16-4.35v-69.7
				c14.03,0.87,53.55,4.29,65,15.74c14,14-9,18-9,18s44,6,45,21c0.78,11.68,31.86,19.11,45.59,21.83C150.5,391.61,153,392,153,392z"
				/>
			<g id="XMLID_170_">
				<path id="XMLID_174_" style="fill:#00A653;" d="M69,375c0,17,8,33,8,33l-14.35-3.53L20,394c0,0,8-37.99-5.99-54.99
					c0.04,0.01,0.18,0.07,0.41,0.19c2.87,1.36,19.63,10.1,23.25,29.68c0.01,0.04,0.02,0.08,0.02,0.12c0.11,0.63,0.21,1.27,0.3,1.92
					c-0.15-1.71-2.27-30.24,21-40.91C58.71,330.64,45.15,361.17,59,377l0.11-0.74c0.68-4.12,4.85-23.95,21.89-21.26
					C81,355,69,358,69,375z"/>
				<path id="XMLID_173_" style="opacity:0.17;fill:#1D3003;" d="M69,375c0,17,8,33,8,33l-14.35-3.53
					c-0.23-1.12-0.45-2.28-0.65-3.47c-8-47,19-46,19-46S69,358,69,375z"/>
				<path id="XMLID_172_" style="opacity:0.17;fill:#1D3003;" d="M59,377c-22.68-20.71-0.64-46.27-0.01-46.99
					C58.71,330.64,45.15,361.17,59,377z"/>
				<path id="XMLID_171_" style="opacity:0.17;fill:#1D3003;" d="M33,380c-1.81-30.81-15.94-39.45-18.58-40.8
					c2.87,1.36,19.63,10.1,23.25,29.68c0.01,0.04,0.02,0.08,0.02,0.12C39.37,383,33,380,33,380z"/>
			</g>
			<path id="XMLID_169_" style="fill:#BFFF69;" d="M750,269.64V495H0V378.41c6.69,1.12,13.95,2.25,21.73,3.36
				c11.81,1.67,24.81,3.27,38.81,4.65c3.18,0.31,6.42,0.61,9.71,0.9c23.23,2.05,48.94,3.43,76.34,3.51
				c49.58,0.17,104.69-3.92,160.67-16h0.01c5.28-1.14,10.56-2.35,15.85-3.63c1.03-0.25,2.05-0.5,3.08-0.75
				c40.33-10.01,80.84-24.36,119.8-44.45C589.04,252.24,688.88,242.24,750,269.64z"/>
			<path id="XMLID_168_" style="fill:#7ACC0E;" d="M750,274.64V500H0V383.41c6.53,1.09,13.61,2.2,21.18,3.27
				c3.86,0.55,7.86,1.1,11.98,1.63c8.69,1.12,17.92,2.18,27.63,3.14c3.48,0.34,7.02,0.67,10.62,0.98
				c69.1,5.99,159.83,6.08,251.71-16.23c6.04-1.47,12.08-3.03,18.12-4.69c35.33-9.72,70.64-22.92,104.76-40.51
				C589.04,257.24,688.88,247.24,750,274.64z"/>
			<g id="XMLID_165_">
				<path id="XMLID_167_" style="fill:#5B990A;" d="M321.9,452.95c-23.11,7.92-62.59,12.23-94.8,14.53
					C198.11,469.55,175,470,175,470s-4-34,26-38s38,11,38,11s4-21,18-12c0,0,11.8-22.62,37.35-16.16c0.22,0.05,0.43,0.1,0.65,0.16
					c26,7,27,13,27,13s2-18,15-8S365.81,437.89,321.9,452.95z"/>
				<path id="XMLID_166_" style="opacity:0.17;fill:#1D3003;" d="M321.9,452.95c-23.11,7.92-62.59,12.23-94.8,14.53
					c-18.37-3.42-30.81-8.01-29.86-12.81c3.25-16.34,27.76-8.67,39.95-5.01C249.39,453.32,255,444,266,440s18,2,27-9
					c4.51-5.51,3.49-11.53,1.35-16.16c0.22,0.05,0.43,0.1,0.65,0.16c26,7,27,13,27,13s2-18,15-8S365.81,437.89,321.9,452.95z"/>
			</g>
			<path id="XMLID_164_" style="opacity:0.14;fill:#D1FF94;" d="M702,270c-48-8-148,26-234,66s-186,55-186,55
				c18.074,0.502,377-25,382-41s-138,3-143-13c-2.592-8.295,52.976-19.51,60.866-25.5c6.98-5.298,14.895-9.241,23.251-11.88
				C636.823,289.604,663.338,283.504,684,283C725,282,750,278,702,270z"/>
			<path id="XMLID_163_" style="opacity:0.09;fill:#1D3003;" d="M195,491c-0.03,0-0.05,0.01-0.08,0.01
				c-13.89,1.56-29.42,2.46-45.66,2.77c-2.04,0.05-4.09,0.08-6.15,0.11h-0.04c-5.61,0.05-11.29,0.05-17-0.01
				c-7.77-0.09-15.61-0.3-23.42-0.62h-0.01c-5.75-0.22-11.5-0.51-17.19-0.85c0,0-0.01,0-0.01-0.01c-2.89-0.16-5.76-0.35-8.61-0.55
				h-0.04c-7.24-0.51-14.36-1.11-21.29-1.79c-6.77-0.65-13.36-1.39-19.69-2.19c-4.94-0.62-9.73-1.29-14.33-2
				c-0.02,0-0.04,0-0.06-0.01c-7.74-1.19-14.93-2.48-21.42-3.87v-80.91C15.07,406.66,45.84,416,83,416c53,0,25,21,32,33
				c3.04,5.21,34.13,7.23,71.21,6.78c25.49-0.31,53.82-1.79,77.8-4.2c0.01,0,0.01,0,0.01,0c0.01,0,0.01,0,0.02,0
				c21.41-2.15,39.36-5.05,48.76-8.53c0.01,0,0.01,0,0.02,0c0.01,0,0.01,0,0.02-0.01c5.69-2.11,8.55-2.52,9-1.68
				C324.19,445.7,262.06,483.46,195,491z"/>
			<path id="XMLID_162_" style="opacity:0.09;fill:#1D3003;" d="M750,305.94v138.2l-10.88,0.78l-0.37,0.02l-14.55,1.04
				l-187.13,13.37l-187.89,13.42l-5.51,0.4L262,479c0,0,49.22-23.53,116.13-47.64v-0.01c2.16-0.78,4.35-1.56,6.55-2.33
				c0.09-0.04,0.18-0.07,0.27-0.1c0.01,0,0.01,0,0.02,0c14.15-5.02,29.02-10.04,44.33-14.83c0.01-0.01,0.02-0.01,0.03-0.01
				c37.25-11.67,77.08-22.07,115.4-28.23c18.17-2.92,36-4.88,53.05-5.57c3.78-0.16,7.52-0.25,11.22-0.28
				c3.42-0.02,6.73-0.07,9.93-0.13c13.69-0.26,25.52-0.86,35.71-1.73c4.93-0.43,9.48-0.92,13.67-1.47
				c46.14-6.05,48.46-19.29,39.25-31.36c-4.63-6.09-12.2-11.89-18.56-16.31c-23-16-33-32,9-33
				C719.43,295.49,737.47,300.71,750,305.94z"/>
			<g id="XMLID_157_">
				<path id="XMLID_161_" style="fill:#00A653;" d="M750,383.8v51.84c-5.27,5.27-10.08,8.72-10.88,9.28
					C739.04,444.97,739,445,739,445l-0.25-0.06l-47.4-10.66l-29.66-6.68L659,427l-54-11l-32.39,8.1L553,429l-5.92-1.73L505,415
					c0,0-0.21-3.9,3.39-9.01c1.55-2.2,3.8-4.62,7.08-7.05c5.9-4.38,15.12-8.78,29.53-11.94c0,0-0.12-0.41-0.27-1.15
					c-0.53-2.47-1.53-8.63-0.33-15.58c1.57-8.97,6.82-19.25,21.55-24.57c0.66-0.25,1.35-0.48,2.05-0.7c1.54-0.48,3.04-0.84,4.51-1.1
					c3.66-0.65,7.12-0.64,10.37-0.14c12.24,1.91,21.51,10.87,27.44,18.71c4.87,6.43,7.49,12.11,7.67,12.51
					c0.01,0.01,0.01,0.01,0.01,0.02c0,0,9.12-9.65,20.28-13.24c0,0,0,0,0.01-0.01c4.08-1.32,8.43-1.82,12.71-0.75
					c13.36,3.34,16.26,10.86,16.85,13.25c0.01,0.02,0.01,0.05,0.02,0.08c0.03,0.18,0.07,0.37,0.11,0.56
					c0.01,0.04,0.01,0.07,0.02,0.11c0,0-2-34,28-32c4.32,0.29,8.16,1.09,11.56,2.31c2.44,0.86,4.66,1.94,6.67,3.19
					c12.4,7.69,16.9,21.8,17.08,32.81v0.05c0.03,2-0.08,3.9-0.31,5.64C731,387,740.45,380.7,750,383.8z"/>
				<path id="XMLID_160_" style="opacity:0.17;fill:#1D3003;" d="M731.31,381.31v0.05c-0.1,1.97-0.2,3.86-0.31,5.64
					c-1,17-23,26-14,4c4.96-12.13,1.41-29.42-2.77-42.5C726.63,356.19,731.13,370.3,731.31,381.31z"/>
				<path id="XMLID_159_" style="opacity:0.17;fill:#1D3003;" d="M659,397c0-26-20.72-35.24-20.72-35.24s0,0,0.01-0.01
					c4.08-1.32,8.43-1.82,12.71-0.75c13.36,3.34,16.26,10.86,16.85,13.25c0.01,0.02,0.01,0.05,0.02,0.08
					c0.03,0.18,0.07,0.37,0.11,0.56c0.01,0.04,0.01,0.07,0.02,0.11C675,411,659,423,659,397z"/>
				<path id="XMLID_158_" style="opacity:0.17;fill:#1D3003;" d="M598,382c-2.11-21.08-21.01-31.79-32.05-36.3
					c0.66-0.25,1.35-0.48,2.05-0.7c31.56-9.86,49.5,28.9,49.99,29.98c0.01,0.01,0.01,0.01,0.01,0.02C625,403,601,412,598,382z"/>
			</g>
			<path id="XMLID_156_" style="fill:#8FD90F;" d="M750,421.1V494H0v-47.97c0.98,0.26,1.96,0.51,2.95,0.76
				c9.82,2.47,19.8,4.54,29.93,6.24c3.89,0.66,7.8,1.25,11.74,1.8c9.92,1.38,19.96,2.42,30.11,3.15c9.99,0.73,20.08,1.16,30.26,1.33
				c5.36,0.08,10.75,0.1,16.16,0.05c21.41-0.21,43.15-1.5,65.06-3.58c66.1-6.29,133.73-19.8,198.51-32.81
				c1.85-0.38,3.7-0.75,5.55-1.12c13.14-2.64,26.17-5.26,39.03-7.76c0.01-0.01,0.02-0.01,0.03-0.01
				c29.72-5.82,58.59-11.14,86.14-15.14c23.93-3.48,46.87-5.96,68.53-6.94c5.46-0.24,10.81-0.4,16.04-0.47
				c6.28-0.08,12.39-0.04,18.34,0.13c14.47,0.38,27.98,1.46,40.56,3.08c3.64,0.47,7.2,0.99,10.68,1.55
				C702.93,401.62,729.36,410.85,750,421.1z"/>
			<path id="XMLID_155_" style="fill:#5B990A;" d="M750,427.1V500H0v-47.97c12.21,3.19,24.68,5.74,37.36,7.72
				c3.61,0.57,7.25,1.09,10.9,1.56c7.74,1.02,15.55,1.82,23.42,2.44c11.89,0.94,23.92,1.45,36.07,1.59
				c5.8,0.07,11.63,0.06,17.49-0.04c45.34-0.73,92.1-6.19,138.77-13.72c0.01,0,0.01,0,0.01,0c0.01,0,0.01,0,0.02,0
				c16.29-2.63,32.56-5.51,48.76-8.53c0.01,0,0.01,0,0.02,0c0.01,0,0.01,0,0.02-0.01c3-0.55,6-1.12,9-1.68
				c19.26-3.66,38.39-7.48,57.29-11.27c1.87-0.38,3.73-0.75,5.59-1.12c0.08-0.02,0.16-0.04,0.23-0.05c0.01,0,0.01,0,0.02,0
				c42.81-8.61,84.38-17,123.42-22.93c26.49-4.03,51.83-6.92,75.61-7.99c6.63-0.3,13.09-0.46,19.38-0.5c4.08-0.03,8.08,0,12.02,0.09
				c15.68,0.31,30.23,1.43,43.73,3.17c3.3,0.43,6.54,0.9,9.71,1.4C702.52,407.48,729.2,416.77,750,427.1z"/>
			<path id="XMLID_154_" style="opacity:0.17;fill:#1D3003;" d="M750,461.06V500H211c91-8,278-11,321-21s-12-21-12-37
				s63.269-23.214,130-16C687,430,731.86,445.61,750,461.06z"/>
			<path id="XMLID_153_" style="opacity:0.17;fill:#1D3003;" d="M98.42,500H0v-21.74c0.86-0.03,1.75-0.06,2.68-0.08h0.05
				c9.58-0.26,22.44-0.22,35.49,1.02c5.76,0.54,11.56,1.32,17.12,2.4c0.05,0.01,0.09,0.02,0.13,0.03c0.06,0.01,0.11,0.02,0.16,0.03
				c4.35,0.86,8.56,1.91,12.49,3.18c0.01,0.01,0.01,0.01,0.02,0.01c2.03,0.65,3.99,1.37,5.86,2.15c3.58,1.5,7.48,3.33,11.44,5.4
				c0,0.01,0.01,0.01,0.01,0.01c0.37,0.18,0.73,0.37,1.09,0.57c0.63,0.33,1.26,0.67,1.89,1.02c0.6,0.33,1.2,0.66,1.79,1
				c1.74,0.98,3.47,2.01,5.17,3.06C96.41,498.7,97.42,499.34,98.42,500z"/>
		</g>
		<g id="XMLID_147_">
			<path id="XMLID_151_" style="fill:#327307;" d="M196,495c0,1.74-0.62,3.41-1.72,5H0v-2.69c0.96-0.74,2-1.51,3.15-2.31
				c0.39-0.27,0.79-0.54,1.2-0.82c0,0-0.05-0.06-0.15-0.18c-0.52-0.6-2.23-2.69-4.2-5.76v-38.98c0.89-0.84,1.87-1.67,2.95-2.47
				c1.82-1.35,3.92-2.63,6.33-3.84c0.17-0.08,0.33-0.16,0.49-0.23c16.41-7.94,27.62,0.82,34.85,12.11c1.35,2.1,2.56,4.29,3.64,6.48
				c3.95,8.01,6.15,15.98,6.99,19.4c0.09,0.36,0.16,0.67,0.22,0.92c0.12,0.53,0.18,0.81,0.18,0.81s-0.02-0.29-0.02-0.78
				c0.03-3.05,1.08-13.74,14.68-9.99c0,0-0.14-3.61,1.37-7.92c0.65-1.87,1.62-3.87,3.05-5.77c3.73-4.96,10.62-9.17,23.3-8.32
				c0.95,0.06,1.94,0.15,2.95,0.27c1.59,0.19,3.09,0.45,4.5,0.77c0.71,0.16,1.4,0.34,2.06,0.53c0.67,0.19,1.31,0.39,1.94,0.61
				c1.87,0.65,3.57,1.43,5.11,2.3c0.51,0.29,1,0.59,1.48,0.9c0.37,0.25,0.74,0.5,1.09,0.76c0.43,0.3,0.83,0.61,1.22,0.93
				c0.74,0.61,1.43,1.24,2.07,1.88c0.24,0.25,0.48,0.5,0.7,0.75c0.66,0.72,1.26,1.46,1.82,2.22c0.26,0.36,0.51,0.72,0.75,1.09
				c0.57,0.87,1.07,1.75,1.52,2.63c1.59,3.11,2.51,6.3,3.03,9.16c0.81,4.48,0.66,8.18,0.55,9.62c-0.01,0.03-0.01,0.06-0.01,0.09
				c-0.02,0.25-0.04,0.42-0.05,0.5c0,0.01,0,0.01,0,0.01c0,0.04,0,0.06,0,0.06s8.25-7.81,17.56-7.99c0.58-0.01,1.16,0.01,1.75,0.06
				c0.04,0,0.08,0.01,0.13,0.01c0.44,0.04,0.88,0.11,1.32,0.19c0.23,0.04,0.45,0.09,0.67,0.14c0.22,0.05,0.44,0.11,0.66,0.17
				c2.52,0.7,5.03,2.13,7.39,4.56c0,0,14.1-13.09,33.58,5.24c1.41,1.33,2.43,2.62,3.1,3.89c0.56,1.02,0.88,2.01,1.01,2.99
				C195.98,494.33,196,494.67,196,495z"/>
			<path id="XMLID_150_" style="opacity:0.17;fill:#1D3003;" d="M128.27,474.46c0.81,4.48,0.66,8.18,0.55,9.62
				c-0.01,0.03-0.01,0.06-0.01,0.09c-0.02,0.25-0.04,0.42-0.05,0.5c0,0.01,0,0.01,0,0.01c-0.62,2.97-1.33,5.28-1.98,7.18
				c-0.25,0.73-0.49,1.4-0.71,2.02c-0.01,0.04-0.03,0.08-0.04,0.12c-0.13,0.35-0.24,0.68-0.35,1c-0.33,0.96-0.6,1.81-0.76,2.62
				c-0.17,0.81-0.23,1.58-0.14,2.38H92.26c0.96-0.65,2.02-1.29,3.13-1.94c1.6-0.94,3.3-1.92,4.96-3.06
				c0.15-0.11,0.31-0.22,0.46-0.32c0.31-0.22,0.62-0.45,0.92-0.68c0.31-0.24,0.62-0.48,0.92-0.74c1.35-1.12,2.61-2.4,3.69-3.91
				c1.98-2.79,3.36-6.36,3.53-11.18c0.17-4.63-0.7-8.95-2.12-12.83c-0.77-2.15-1.72-4.16-2.76-6.03c-2.2-3.97-4.79-7.25-6.96-9.65
				c0.95,0.06,1.94,0.15,2.95,0.27c1.59,0.19,3.09,0.45,4.5,0.77c0.71,0.16,1.4,0.34,2.06,0.53c0.67,0.19,1.31,0.39,1.94,0.61
				c1.87,0.65,3.57,1.43,5.11,2.3c0.51,0.29,1,0.59,1.48,0.9c0.37,0.24,0.74,0.49,1.09,0.76c0.43,0.3,0.83,0.61,1.22,0.93
				c0.74,0.6,1.43,1.23,2.07,1.88c0.24,0.25,0.48,0.5,0.7,0.75c0.66,0.72,1.26,1.46,1.82,2.22c0.26,0.36,0.51,0.72,0.75,1.09
				c0.57,0.87,1.07,1.75,1.52,2.63C126.83,468.41,127.75,471.6,128.27,474.46z"/>
			<path id="XMLID_149_" style="opacity:0.17;fill:#1D3003;" d="M196,495c0,1.74-0.62,3.41-1.72,5h-48.17
				c1.17-1.39,2.14-3.05,2.79-5c0.11-0.32,0.21-0.66,0.3-1c0.02-0.07,0.04-0.14,0.06-0.22c0.3-1.2,0.49-2.5,0.55-3.91
				c0.27-6.55-1.37-10.61-3.49-13.12c0.58-0.01,1.16,0.01,1.75,0.06c0.04,0,0.08,0.01,0.13,0.01c0.88,0.09,1.77,0.25,2.65,0.5
				c2.52,0.7,5.03,2.13,7.39,4.56c0,0,14.1-13.09,33.58,5.24c1.41,1.33,2.43,2.62,3.1,3.89c0.56,1.02,0.88,2.01,1.01,2.99
				C195.98,494.33,196,494.67,196,495z"/>
			<path id="XMLID_148_" style="opacity:0.17;fill:#1D3003;" d="M55.55,489.44c-0.01,0.21-0.03,0.42-0.05,0.62
				c-0.11,1.37-0.3,2.68-0.56,3.94c-0.06,0.34-0.14,0.67-0.22,1c-0.41,1.79-0.95,3.46-1.6,5H33.56c-0.04-1.61,0.14-3.28,0.46-5
				c0.05-0.33,0.12-0.66,0.19-1c0.41-1.98,0.98-4.03,1.6-6.13c0.05-0.18,0.1-0.36,0.15-0.54c0.56-1.91,1.15-3.85,1.68-5.82
				c0.2-0.76,0.4-1.53,0.58-2.31c1.51-6.35,2.12-12.95-0.86-19.45c-0.66-1.44-1.5-2.88-2.54-4.31c-0.63-0.86-1.27-1.66-1.94-2.41
				c-7.14-8.06-16.24-10.13-23.11-10.31c16.41-7.94,27.62,0.82,34.85,12.11c1.35,2.1,2.56,4.29,3.64,6.48
				c3.95,8.01,6.15,15.98,6.99,19.4c0.03,0.3,0.06,0.59,0.09,0.89c0.05,0.46,0.09,0.92,0.13,1.39c0.01,0.15,0.03,0.29,0.04,0.44
				C55.68,485.52,55.69,487.53,55.55,489.44z"/>
		</g>
	</g>
	<g id="XMLID_17_">
		<g id="XMLID_30_">
			<path id="XMLID_32_" style="fill:#FFFFFF;" d="M604.477,174.754c0,1.507-0.318,2.944-0.885,4.246H487.807
				c-0.524-1.557-0.807-3.22-0.807-4.954c0-8.599,6.971-15.569,15.569-15.569c1.366,0,2.689,0.177,3.949,0.51
				c3.369-3.786,8.28-6.171,13.743-6.171c0.665,0,1.323,0.035,1.975,0.106C525.81,141.379,536.56,133,549.277,133
				c6.78,0,13,2.385,17.869,6.355c5.506,4.494,9.292,11.019,10.212,18.428c0.191-0.007,0.389-0.014,0.58-0.014
				c5.393,0,10.155,2.682,13.036,6.78c0.92-0.262,1.883-0.41,2.887-0.41C599.721,164.139,604.477,168.894,604.477,174.754z"/>
			<path id="XMLID_31_" style="fill:#C9EFFF;" d="M604.477,174.754c0,1.507-0.318,2.944-0.885,4.246h-48.597
				c14.847-9.603,14.182-28.378,12.151-39.645c5.506,4.494,9.292,11.019,10.212,18.428c0.191-0.007,0.389-0.014,0.58-0.014
				c5.393,0,10.155,2.682,13.036,6.78c0.92-0.262,1.883-0.41,2.887-0.41C599.721,164.139,604.477,168.894,604.477,174.754z"/>
		</g>
		<g id="XMLID_27_">
			<path id="XMLID_29_" style="fill:#FFFFFF;" d="M408,102.5c0,2.6-0.36,5.12-1.05,7.5h-160.2c-1.12-2.26-1.75-4.8-1.75-7.5
				c0-9.39,7.61-17,17-17c2.73,0,5.3,0.66,7.58,1.8c4.93-7.41,13.35-12.3,22.92-12.3c0.3,0,0.59,0.01,0.89,0.02
				C296.05,55.8,312.54,41,332.5,41c2.46,0,4.87,0.23,7.21,0.66c17.07,3.15,30.29,17.26,32.08,34.76c2.74-0.92,5.66-1.42,8.71-1.42
				C395.69,75,408,87.31,408,102.5z"/>
			<path id="XMLID_28_" style="fill:#C9EFFF;" d="M408,102.5c0,2.6-0.36,5.12-1.05,7.5h-77.14c14.91-8.53,21.73-26.37,23.19-41
				c2-20-13.29-27.34-13.29-27.34c17.07,3.15,30.29,17.26,32.08,34.76c2.74-0.92,5.66-1.42,8.71-1.42C395.69,75,408,87.31,408,102.5
				z"/>
		</g>
		<g id="XMLID_24_">
			<path id="XMLID_26_" style="fill:#FFFFFF;" d="M413,269H289.374c-0.88-2.016-1.374-4.237-1.374-6.581
				c0-9.09,7.363-16.453,16.453-16.453c0.041,0,0.091,0.008,0.132,0.008c3.562-8.695,12.109-14.816,22.08-14.816
				c2.344,0,4.607,0.346,6.746,0.971c5.207-6.129,12.965-10.02,21.635-10.02c2.994,0,5.89,0.461,8.605,1.333
				c8.843,2.805,15.803,9.83,18.526,18.707c1.078-0.189,2.18-0.296,3.307-0.296c10.225,0,18.509,8.284,18.509,18.509
				c0,0.14-0.008,0.271-0.008,0.411h0.008C408.714,260.774,412.589,264.385,413,269z"/>
			<path id="XMLID_25_" style="fill:#C9EFFF;" d="M413,269h-59.872c5.117-3.973,9.534-8.852,12.2-14.807
				c6.573-14.668,2.575-24.984-1.678-30.75c8.843,2.805,15.803,9.83,18.526,18.707c1.078-0.189,2.18-0.296,3.307-0.296
				c10.225,0,18.509,8.284,18.509,18.509c0,0.14-0.008,0.271-0.008,0.411h0.008C408.714,260.774,412.589,264.385,413,269z"/>
		</g>
		<g id="XMLID_21_">
			<path id="XMLID_23_" style="fill:#FFFFFF;" d="M700.303,75.11h-60.928c-0.434-0.993-0.677-2.088-0.677-3.243
				c0-4.48,3.629-8.109,8.109-8.109c0.02,0,0.045,0.004,0.065,0.004c1.756-4.285,5.968-7.302,10.882-7.302
				c1.156,0,2.27,0.17,3.325,0.478c2.566-3.02,6.39-4.938,10.663-4.938c1.476,0,2.903,0.227,4.241,0.657
				c4.358,1.382,7.788,4.845,9.13,9.22c0.531-0.093,1.074-0.146,1.63-0.146c5.039,0,9.122,4.083,9.122,9.122
				c0,0.069-0.004,0.134-0.004,0.203h0.004C698.19,71.055,700.1,72.835,700.303,75.11z"/>
			<path id="XMLID_22_" style="fill:#C9EFFF;" d="M700.303,75.11h-29.507c2.522-1.958,4.699-4.362,6.013-7.298
				c3.239-7.229,1.269-12.313-0.827-15.155c4.358,1.382,7.788,4.845,9.13,9.22c0.531-0.093,1.074-0.146,1.63-0.146
				c5.039,0,9.122,4.083,9.122,9.122c0,0.069-0.004,0.134-0.004,0.203h0.004C698.19,71.055,700.1,72.835,700.303,75.11z"/>
		</g>
		<g id="XMLID_18_">
			<path id="XMLID_20_" style="fill:#FFFFFF;" d="M146.815,125.031c0,1.409-0.298,2.752-0.827,3.969H37.754
				c-0.49-1.455-0.754-3.01-0.754-4.631c0-8.038,6.516-14.554,14.554-14.554c1.277,0,2.514,0.165,3.691,0.476
				c3.149-3.539,7.74-5.769,12.847-5.769c0.622,0,1.237,0.033,1.846,0.099C73.279,93.833,83.328,86,95.215,86
				c6.337,0,12.152,2.229,16.704,5.941c5.147,4.201,8.686,10.3,9.546,17.226c0.179-0.007,0.364-0.013,0.543-0.013
				c5.041,0,9.493,2.507,12.185,6.338c0.86-0.245,1.76-0.384,2.699-0.384C142.37,115.108,146.815,119.553,146.815,125.031z"/>
			<path id="XMLID_19_" style="fill:#C9EFFF;" d="M146.815,125.031c0,1.409-0.298,2.752-0.827,3.969h-45.428
				c13.879-8.977,13.257-26.528,11.359-37.059c5.147,4.201,8.686,10.3,9.546,17.226c0.179-0.007,0.364-0.013,0.543-0.013
				c5.041,0,9.493,2.507,12.185,6.338c0.86-0.245,1.76-0.384,2.699-0.384C142.37,115.108,146.815,119.553,146.815,125.031z"/>
		</g>
	</g>
</g>
</svg>
